<svg width="27" height="27" viewBox="0 0 27 27" fill="none" xmlns="http://www.w3.org/2000/svg">
<path d="M13.4995 26.0118C15.1426 26.0118 16.7696 25.6881 18.2876 25.0594C19.8056 24.4306 21.1848 23.509 22.3467 22.3472C23.5085 21.1853 24.4301 19.806 25.0589 18.288C25.6877 16.77 26.0113 15.1431 26.0113 13.5C26.0113 11.8569 25.6877 10.23 25.0589 8.71195C24.4301 7.19396 23.5085 5.81467 22.3467 4.65285C21.1848 3.49102 19.8056 2.56941 18.2876 1.94064C16.7696 1.31186 15.1426 0.988234 13.4995 0.988234M13.4995 26.0118C11.8564 26.0118 10.2295 25.6881 8.71147 25.0594C7.19347 24.4306 5.81418 23.509 4.65236 22.3472C3.49053 21.1853 2.56892 19.806 1.94015 18.288C1.31137 16.77 0.987745 15.1431 0.987745 13.5C0.987745 11.8569 1.31137 10.23 1.94015 8.71195C2.56892 7.19396 3.49053 5.81467 4.65236 4.65285C5.81418 3.49102 7.19347 2.56941 8.71147 1.94064C10.2295 1.31186 11.8564 0.988234 13.4995 0.988234M13.4995 26.0118C17.3378 26.0118 18.9783 18.8342 18.9783 13.5C18.9783 8.16582 17.3378 0.988234 13.4995 0.988234M13.4995 26.0118C9.66118 26.0118 8.02075 18.8342 8.02075 13.5C8.02075 8.16582 9.66118 0.988234 13.4995 0.988234M1.68284 9.32941H25.3162M1.68284 17.6706H25.3162" stroke="#072C3D" stroke-width="1.97368" stroke-linecap="round" stroke-linejoin="round"/>
</svg>
