<svg width="21" height="21" viewBox="0 0 21 21" fill="none" xmlns="http://www.w3.org/2000/svg">
<path d="M10.5 20.2317C11.778 20.2317 13.0435 19.98 14.2242 19.4909C15.4049 19.0019 16.4777 18.285 17.3814 17.3814C18.285 16.4777 19.0019 15.4049 19.4909 14.2242C19.98 13.0435 20.2317 11.778 20.2317 10.5C20.2317 9.22201 19.98 7.95654 19.4909 6.77584C19.0019 5.59513 18.285 4.52232 17.3814 3.61864C16.4777 2.71497 15.4049 1.99814 14.2242 1.50907C13.0435 1.02001 11.778 0.768293 10.5 0.768293M10.5 20.2317C9.22201 20.2317 7.95654 19.98 6.77584 19.4909C5.59513 19.0019 4.52232 18.285 3.61864 17.3814C2.71497 16.4777 1.99814 15.4049 1.50907 14.2242C1.02001 13.0435 0.768293 11.778 0.768293 10.5C0.768293 9.22201 1.02001 7.95654 1.50907 6.77584C1.99814 5.59513 2.71497 4.52232 3.61864 3.61864C4.52232 2.71497 5.59513 1.99814 6.77584 1.50907C7.95654 1.02001 9.22201 0.768293 10.5 0.768293M10.5 20.2317C13.4855 20.2317 14.7614 14.649 14.7614 10.5C14.7614 6.35105 13.4855 0.768293 10.5 0.768293M10.5 20.2317C7.51453 20.2317 6.23859 14.649 6.23859 10.5C6.23859 6.35105 7.51453 0.768293 10.5 0.768293M1.30894 7.2561H19.6911M1.30894 13.7439H19.6911" stroke="white" stroke-width="1.5" stroke-linecap="round" stroke-linejoin="round"/>
</svg>
